<mxfile host="app.diagrams.net" agent="Mozilla/5.0 (Windows NT 10.0; Win64; x64) AppleWebKit/537.36 (KHTML, like Gecko) Chrome/135.0.0.0 Safari/537.36" version="26.2.14">
  <diagram name="Page-1" id="kfoyUeKBXiG-PbapEJhw">
    <mxGraphModel dx="2535" dy="1921" grid="1" gridSize="10" guides="1" tooltips="1" connect="1" arrows="1" fold="1" page="1" pageScale="1" pageWidth="827" pageHeight="1169" math="0" shadow="0">
      <root>
        <mxCell id="0" />
        <mxCell id="1" parent="0" />
        <mxCell id="3Te5-LRJc6nQtU0dgiJG-1" value="Unregistered User" style="shape=umlActor;verticalLabelPosition=bottom;verticalAlign=top;html=1;outlineConnect=0;" vertex="1" parent="1">
          <mxGeometry y="80" width="30" height="60" as="geometry" />
        </mxCell>
        <mxCell id="3Te5-LRJc6nQtU0dgiJG-50" value="" style="whiteSpace=wrap;html=1;aspect=fixed;" vertex="1" parent="1">
          <mxGeometry x="73.75" y="-30" width="650" height="650" as="geometry" />
        </mxCell>
        <mxCell id="3Te5-LRJc6nQtU0dgiJG-2" value="Registered User" style="shape=umlActor;verticalLabelPosition=bottom;verticalAlign=top;html=1;outlineConnect=0;" vertex="1" parent="1">
          <mxGeometry y="320" width="30" height="60" as="geometry" />
        </mxCell>
        <mxCell id="3Te5-LRJc6nQtU0dgiJG-3" value="" style="ellipse;whiteSpace=wrap;html=1;" vertex="1" parent="1">
          <mxGeometry x="210" y="70" width="90" height="50" as="geometry" />
        </mxCell>
        <mxCell id="3Te5-LRJc6nQtU0dgiJG-4" value="+ Registration Process" style="text;html=1;align=center;verticalAlign=middle;whiteSpace=wrap;rounded=0;" vertex="1" parent="1">
          <mxGeometry x="212.5" y="80" width="85" height="30" as="geometry" />
        </mxCell>
        <mxCell id="3Te5-LRJc6nQtU0dgiJG-7" value="" style="ellipse;whiteSpace=wrap;html=1;" vertex="1" parent="1">
          <mxGeometry x="210" y="220" width="90" height="50" as="geometry" />
        </mxCell>
        <mxCell id="3Te5-LRJc6nQtU0dgiJG-8" value="+ Login" style="text;html=1;align=center;verticalAlign=middle;whiteSpace=wrap;rounded=0;" vertex="1" parent="1">
          <mxGeometry x="225" y="230" width="60" height="30" as="geometry" />
        </mxCell>
        <mxCell id="3Te5-LRJc6nQtU0dgiJG-11" value="" style="ellipse;whiteSpace=wrap;html=1;" vertex="1" parent="1">
          <mxGeometry x="390" y="70" width="90" height="50" as="geometry" />
        </mxCell>
        <mxCell id="3Te5-LRJc6nQtU0dgiJG-12" value="+ Error Login" style="text;html=1;align=center;verticalAlign=middle;whiteSpace=wrap;rounded=0;" vertex="1" parent="1">
          <mxGeometry x="405" y="80" width="60" height="30" as="geometry" />
        </mxCell>
        <mxCell id="3Te5-LRJc6nQtU0dgiJG-14" value="" style="endArrow=classic;html=1;rounded=0;entryX=0.601;entryY=0;entryDx=0;entryDy=0;exitX=0;exitY=0.5;exitDx=0;exitDy=0;entryPerimeter=0;" edge="1" parent="1" source="3Te5-LRJc6nQtU0dgiJG-11" target="3Te5-LRJc6nQtU0dgiJG-7">
          <mxGeometry width="50" height="50" relative="1" as="geometry">
            <mxPoint x="290" y="240" as="sourcePoint" />
            <mxPoint x="340" y="190" as="targetPoint" />
            <Array as="points" />
          </mxGeometry>
        </mxCell>
        <mxCell id="3Te5-LRJc6nQtU0dgiJG-15" value="" style="endArrow=none;html=1;rounded=0;entryX=0;entryY=1;entryDx=0;entryDy=0;" edge="1" parent="1" target="3Te5-LRJc6nQtU0dgiJG-7">
          <mxGeometry width="50" height="50" relative="1" as="geometry">
            <mxPoint x="50" y="340" as="sourcePoint" />
            <mxPoint x="190" y="290" as="targetPoint" />
          </mxGeometry>
        </mxCell>
        <mxCell id="3Te5-LRJc6nQtU0dgiJG-16" value="" style="endArrow=none;html=1;rounded=0;entryX=0;entryY=0;entryDx=0;entryDy=0;" edge="1" parent="1" target="3Te5-LRJc6nQtU0dgiJG-7">
          <mxGeometry width="50" height="50" relative="1" as="geometry">
            <mxPoint x="60" y="130" as="sourcePoint" />
            <mxPoint x="200" y="190" as="targetPoint" />
          </mxGeometry>
        </mxCell>
        <mxCell id="3Te5-LRJc6nQtU0dgiJG-17" value="" style="endArrow=none;html=1;rounded=0;entryX=0;entryY=0.5;entryDx=0;entryDy=0;" edge="1" parent="1" target="3Te5-LRJc6nQtU0dgiJG-3">
          <mxGeometry width="50" height="50" relative="1" as="geometry">
            <mxPoint x="60" y="95" as="sourcePoint" />
            <mxPoint x="223" y="190" as="targetPoint" />
          </mxGeometry>
        </mxCell>
        <mxCell id="3Te5-LRJc6nQtU0dgiJG-21" value="" style="ellipse;whiteSpace=wrap;html=1;" vertex="1" parent="1">
          <mxGeometry x="212.5" y="360" width="90" height="50" as="geometry" />
        </mxCell>
        <mxCell id="3Te5-LRJc6nQtU0dgiJG-22" value="+ User Profile" style="text;html=1;align=center;verticalAlign=middle;whiteSpace=wrap;rounded=0;" vertex="1" parent="1">
          <mxGeometry x="210" y="370" width="90" height="30" as="geometry" />
        </mxCell>
        <mxCell id="3Te5-LRJc6nQtU0dgiJG-27" value="" style="ellipse;whiteSpace=wrap;html=1;" vertex="1" parent="1">
          <mxGeometry x="465" y="440" width="105" height="60" as="geometry" />
        </mxCell>
        <mxCell id="3Te5-LRJc6nQtU0dgiJG-28" value="+&amp;nbsp; Reading History" style="text;html=1;align=center;verticalAlign=middle;whiteSpace=wrap;rounded=0;" vertex="1" parent="1">
          <mxGeometry x="465" y="455" width="105" height="30" as="geometry" />
        </mxCell>
        <mxCell id="3Te5-LRJc6nQtU0dgiJG-33" value="" style="ellipse;whiteSpace=wrap;html=1;" vertex="1" parent="1">
          <mxGeometry x="610" y="440" width="97.5" height="60" as="geometry" />
        </mxCell>
        <mxCell id="3Te5-LRJc6nQtU0dgiJG-34" value="+ Delete History" style="text;html=1;align=center;verticalAlign=middle;whiteSpace=wrap;rounded=0;" vertex="1" parent="1">
          <mxGeometry x="613.75" y="455" width="90" height="30" as="geometry" />
        </mxCell>
        <mxCell id="3Te5-LRJc6nQtU0dgiJG-35" value="" style="ellipse;whiteSpace=wrap;html=1;" vertex="1" parent="1">
          <mxGeometry x="341.25" y="360" width="90" height="50" as="geometry" />
        </mxCell>
        <mxCell id="3Te5-LRJc6nQtU0dgiJG-36" value="+ Location" style="text;html=1;align=center;verticalAlign=middle;whiteSpace=wrap;rounded=0;" vertex="1" parent="1">
          <mxGeometry x="338.75" y="370" width="90" height="30" as="geometry" />
        </mxCell>
        <mxCell id="3Te5-LRJc6nQtU0dgiJG-37" value="" style="ellipse;whiteSpace=wrap;html=1;" vertex="1" parent="1">
          <mxGeometry x="490" y="320" width="90" height="50" as="geometry" />
        </mxCell>
        <mxCell id="3Te5-LRJc6nQtU0dgiJG-38" value="+ View Readings" style="text;html=1;align=center;verticalAlign=middle;whiteSpace=wrap;rounded=0;" vertex="1" parent="1">
          <mxGeometry x="487.5" y="330" width="90" height="30" as="geometry" />
        </mxCell>
        <mxCell id="3Te5-LRJc6nQtU0dgiJG-39" value="" style="ellipse;whiteSpace=wrap;html=1;" vertex="1" parent="1">
          <mxGeometry x="490" y="130" width="90" height="50" as="geometry" />
        </mxCell>
        <mxCell id="3Te5-LRJc6nQtU0dgiJG-40" value="+ About us" style="text;html=1;align=center;verticalAlign=middle;whiteSpace=wrap;rounded=0;" vertex="1" parent="1">
          <mxGeometry x="490" y="140" width="90" height="30" as="geometry" />
        </mxCell>
        <mxCell id="3Te5-LRJc6nQtU0dgiJG-41" value="" style="ellipse;whiteSpace=wrap;html=1;" vertex="1" parent="1">
          <mxGeometry x="502.5" y="220" width="90" height="50" as="geometry" />
        </mxCell>
        <mxCell id="3Te5-LRJc6nQtU0dgiJG-42" value="+ Contact us" style="text;html=1;align=center;verticalAlign=middle;whiteSpace=wrap;rounded=0;" vertex="1" parent="1">
          <mxGeometry x="500" y="230" width="90" height="30" as="geometry" />
        </mxCell>
        <mxCell id="3Te5-LRJc6nQtU0dgiJG-43" value="" style="endArrow=classic;html=1;rounded=0;exitX=0.5;exitY=0;exitDx=0;exitDy=0;entryX=0.336;entryY=1.213;entryDx=0;entryDy=0;entryPerimeter=0;" edge="1" parent="1" source="3Te5-LRJc6nQtU0dgiJG-27" target="3Te5-LRJc6nQtU0dgiJG-38">
          <mxGeometry width="50" height="50" relative="1" as="geometry">
            <mxPoint x="490" y="420" as="sourcePoint" />
            <mxPoint x="516" y="370" as="targetPoint" />
          </mxGeometry>
        </mxCell>
        <mxCell id="3Te5-LRJc6nQtU0dgiJG-44" value="" style="endArrow=classic;html=1;rounded=0;exitX=0.5;exitY=0;exitDx=0;exitDy=0;entryX=0.955;entryY=0.883;entryDx=0;entryDy=0;entryPerimeter=0;" edge="1" parent="1" target="3Te5-LRJc6nQtU0dgiJG-38">
          <mxGeometry width="50" height="50" relative="1" as="geometry">
            <mxPoint x="662" y="440" as="sourcePoint" />
            <mxPoint x="660" y="370" as="targetPoint" />
          </mxGeometry>
        </mxCell>
        <mxCell id="3Te5-LRJc6nQtU0dgiJG-45" value="" style="endArrow=classic;html=1;rounded=0;entryX=0.5;entryY=0;entryDx=0;entryDy=0;exitX=0.5;exitY=0;exitDx=0;exitDy=0;" edge="1" parent="1" source="3Te5-LRJc6nQtU0dgiJG-21">
          <mxGeometry width="50" height="50" relative="1" as="geometry">
            <mxPoint x="254.5" y="170" as="sourcePoint" />
            <mxPoint x="255" y="270" as="targetPoint" />
          </mxGeometry>
        </mxCell>
        <mxCell id="3Te5-LRJc6nQtU0dgiJG-46" value="" style="endArrow=classic;html=1;rounded=0;entryX=0.657;entryY=0.946;entryDx=0;entryDy=0;exitX=0.362;exitY=0.001;exitDx=0;exitDy=0;entryPerimeter=0;exitPerimeter=0;" edge="1" parent="1" source="3Te5-LRJc6nQtU0dgiJG-35" target="3Te5-LRJc6nQtU0dgiJG-7">
          <mxGeometry width="50" height="50" relative="1" as="geometry">
            <mxPoint x="267" y="370" as="sourcePoint" />
            <mxPoint x="265" y="280" as="targetPoint" />
          </mxGeometry>
        </mxCell>
        <mxCell id="3Te5-LRJc6nQtU0dgiJG-47" value="" style="endArrow=classic;html=1;rounded=0;entryX=0.885;entryY=0.14;entryDx=0;entryDy=0;exitX=0;exitY=0.75;exitDx=0;exitDy=0;entryPerimeter=0;" edge="1" parent="1" source="3Te5-LRJc6nQtU0dgiJG-40" target="3Te5-LRJc6nQtU0dgiJG-7">
          <mxGeometry width="50" height="50" relative="1" as="geometry">
            <mxPoint x="396" y="370" as="sourcePoint" />
            <mxPoint x="300" y="250" as="targetPoint" />
            <Array as="points" />
          </mxGeometry>
        </mxCell>
        <mxCell id="3Te5-LRJc6nQtU0dgiJG-48" value="" style="endArrow=classic;html=1;rounded=0;entryX=0.09;entryY=0.089;entryDx=0;entryDy=0;exitX=0.09;exitY=0.089;exitDx=0;exitDy=0;exitPerimeter=0;entryPerimeter=0;" edge="1" parent="1" source="3Te5-LRJc6nQtU0dgiJG-38">
          <mxGeometry width="50" height="50" relative="1" as="geometry">
            <mxPoint x="405" y="350" as="sourcePoint" />
            <mxPoint x="292" y="260" as="targetPoint" />
          </mxGeometry>
        </mxCell>
        <mxCell id="3Te5-LRJc6nQtU0dgiJG-49" value="" style="endArrow=classic;html=1;rounded=0;entryX=0.992;entryY=0.438;entryDx=0;entryDy=0;entryPerimeter=0;" edge="1" parent="1" source="3Te5-LRJc6nQtU0dgiJG-42" target="3Te5-LRJc6nQtU0dgiJG-7">
          <mxGeometry width="50" height="50" relative="1" as="geometry">
            <mxPoint x="500" y="173" as="sourcePoint" />
            <mxPoint x="309" y="241" as="targetPoint" />
            <Array as="points" />
          </mxGeometry>
        </mxCell>
        <mxCell id="3Te5-LRJc6nQtU0dgiJG-51" value="&lt;font style=&quot;font-size: 18px;&quot;&gt;&lt;b&gt;USER - USE CASE DIAGRAM FOR MOBILE APPLICATION&lt;/b&gt;&lt;/font&gt;" style="text;html=1;align=center;verticalAlign=middle;whiteSpace=wrap;rounded=0;" vertex="1" parent="1">
          <mxGeometry x="253.75" y="-70" width="290" height="30" as="geometry" />
        </mxCell>
        <mxCell id="3Te5-LRJc6nQtU0dgiJG-53" value="" style="endArrow=none;html=1;rounded=0;exitX=0.07;exitY=0.31;exitDx=0;exitDy=0;exitPerimeter=0;" edge="1" parent="1" source="3Te5-LRJc6nQtU0dgiJG-54">
          <mxGeometry width="50" height="50" relative="1" as="geometry">
            <mxPoint x="390" y="360" as="sourcePoint" />
            <mxPoint x="50" y="360" as="targetPoint" />
          </mxGeometry>
        </mxCell>
        <mxCell id="3Te5-LRJc6nQtU0dgiJG-54" value="" style="ellipse;whiteSpace=wrap;html=1;" vertex="1" parent="1">
          <mxGeometry x="195" y="455" width="95" height="55" as="geometry" />
        </mxCell>
        <mxCell id="3Te5-LRJc6nQtU0dgiJG-55" value="+ Logout" style="text;html=1;align=center;verticalAlign=middle;whiteSpace=wrap;rounded=0;" vertex="1" parent="1">
          <mxGeometry x="210" y="467.5" width="60" height="30" as="geometry" />
        </mxCell>
        <mxCell id="3Te5-LRJc6nQtU0dgiJG-56" value="&lt;font style=&quot;font-size: 10px;&quot;&gt;&amp;lt;extends&amp;gt;&lt;/font&gt;" style="text;html=1;align=center;verticalAlign=middle;whiteSpace=wrap;rounded=0;rotation=35;" vertex="1" parent="1">
          <mxGeometry x="100" y="420" width="60" height="30" as="geometry" />
        </mxCell>
        <mxCell id="3Te5-LRJc6nQtU0dgiJG-57" value="&lt;span style=&quot;font-size: 10px;&quot;&gt;&amp;lt;extends&amp;gt;&lt;/span&gt;" style="text;html=1;align=center;verticalAlign=middle;whiteSpace=wrap;rounded=0;rotation=-25;" vertex="1" parent="1">
          <mxGeometry x="120.49" y="290.15999999999997" width="39.51" height="39.84" as="geometry" />
        </mxCell>
        <mxCell id="3Te5-LRJc6nQtU0dgiJG-60" value="&lt;font style=&quot;font-size: 10px;&quot;&gt;&amp;lt;extends&amp;gt;&lt;/font&gt;" style="text;html=1;align=center;verticalAlign=middle;whiteSpace=wrap;rounded=0;rotation=90;" vertex="1" parent="1">
          <mxGeometry x="214.74" y="291.81" width="60" height="50" as="geometry" />
        </mxCell>
        <mxCell id="3Te5-LRJc6nQtU0dgiJG-61" value="&lt;font style=&quot;font-size: 10px;&quot;&gt;&amp;lt;extends&amp;gt;&lt;/font&gt;" style="text;html=1;align=center;verticalAlign=middle;whiteSpace=wrap;rounded=0;rotation=40;" vertex="1" parent="1">
          <mxGeometry x="290" y="300" width="60" height="50" as="geometry" />
        </mxCell>
        <mxCell id="3Te5-LRJc6nQtU0dgiJG-62" value="&lt;font style=&quot;font-size: 10px;&quot;&gt;&amp;lt;extends&amp;gt;&lt;/font&gt;" style="text;html=1;align=center;verticalAlign=middle;whiteSpace=wrap;rounded=0;rotation=15;" vertex="1" parent="1">
          <mxGeometry x="368.75" y="280" width="60" height="50" as="geometry" />
        </mxCell>
        <mxCell id="3Te5-LRJc6nQtU0dgiJG-64" value="&lt;font style=&quot;font-size: 10px;&quot;&gt;&amp;lt;extends&amp;gt;&lt;/font&gt;" style="text;html=1;align=center;verticalAlign=middle;whiteSpace=wrap;rounded=0;rotation=0;" vertex="1" parent="1">
          <mxGeometry x="400" y="230" width="60" height="50" as="geometry" />
        </mxCell>
        <mxCell id="3Te5-LRJc6nQtU0dgiJG-65" value="&lt;font style=&quot;font-size: 10px;&quot;&gt;&amp;lt;extends&amp;gt;&lt;/font&gt;" style="text;html=1;align=center;verticalAlign=middle;whiteSpace=wrap;rounded=0;rotation=-20;" vertex="1" parent="1">
          <mxGeometry x="384" y="170" width="60" height="50" as="geometry" />
        </mxCell>
        <mxCell id="3Te5-LRJc6nQtU0dgiJG-67" value="&lt;font style=&quot;font-size: 10px;&quot;&gt;&amp;lt;extends&amp;gt;&lt;/font&gt;" style="text;html=1;align=center;verticalAlign=middle;whiteSpace=wrap;rounded=0;rotation=-45;" vertex="1" parent="1">
          <mxGeometry x="320" y="120" width="60" height="50" as="geometry" />
        </mxCell>
        <mxCell id="3Te5-LRJc6nQtU0dgiJG-68" value="&lt;font style=&quot;font-size: 10px;&quot;&gt;&amp;lt;extends&amp;gt;&lt;/font&gt;" style="text;html=1;align=center;verticalAlign=middle;whiteSpace=wrap;rounded=0;rotation=45;" vertex="1" parent="1">
          <mxGeometry x="580" y="380" width="60" height="50" as="geometry" />
        </mxCell>
        <mxCell id="3Te5-LRJc6nQtU0dgiJG-69" value="&lt;font style=&quot;font-size: 10px;&quot;&gt;&amp;lt;extends&amp;gt;&lt;/font&gt;" style="text;html=1;align=center;verticalAlign=middle;whiteSpace=wrap;rounded=0;rotation=90;" vertex="1" parent="1">
          <mxGeometry x="480" y="380" width="60" height="50" as="geometry" />
        </mxCell>
        <mxCell id="3Te5-LRJc6nQtU0dgiJG-70" value="&lt;span style=&quot;font-size: 10px;&quot;&gt;&amp;lt;extends&amp;gt;&lt;/span&gt;" style="text;html=1;align=center;verticalAlign=middle;whiteSpace=wrap;rounded=0;rotation=0;" vertex="1" parent="1">
          <mxGeometry x="120.49000000000001" y="90.07999999999996" width="39.51" height="39.84" as="geometry" />
        </mxCell>
        <mxCell id="3Te5-LRJc6nQtU0dgiJG-72" value="&lt;span style=&quot;font-size: 10px;&quot;&gt;&amp;lt;extends&amp;gt;&lt;/span&gt;" style="text;html=1;align=center;verticalAlign=middle;whiteSpace=wrap;rounded=0;rotation=30;" vertex="1" parent="1">
          <mxGeometry x="140" y="159.99999999999994" width="39.51" height="39.84" as="geometry" />
        </mxCell>
      </root>
    </mxGraphModel>
  </diagram>
</mxfile>
